<svg width="97" height="27" xmlns="http://www.w3.org/2000/svg" xmlns:svg="http://www.w3.org/2000/svg">
 <!-- Created with SVG-edit - https://github.com/SVG-Edit/svgedit-->
 <defs>
  <linearGradient id="svg_5" spreadMethod="pad" x1="0.5" x2="0.5" y1="0.12031" y2="0.86">
   <stop offset="0" stop-color="#f9f9f9" stop-opacity="0.96875"/>
   <stop offset="1" stop-color="#e0e0e0" stop-opacity="0.96875"/>
  </linearGradient>
  <linearGradient id="svg_1" x1="0.5" x2="0.5" y1="0" y2="1">
   <stop offset="0" stop-color="#fdfdfd" stop-opacity="0.98438"/>
   <stop offset="0.99878" stop-color="#cdcfd1" stop-opacity="0.98438"/>
  </linearGradient>
 </defs>
 <g class="layer">
  <title>Layer 1</title>
  <path d="m9,1l79,0a8,8 0 0 1 8,8l0,9a8,8 0 0 1 -8,8l-79,0a8,8 0 0 1 -8,-8l0,-9a8,8 0 0 1 8,-8" fill="url(#svg_1)" id="svg_10" stroke="#005d8c" stroke-width="2"/>
  <path d="m18.2,19.871l-11.2,-2.5l5.2,-11.371l5.6,0.8l2.3,2.771l-1.9,10.3z" fill="url(#svg_5)" id="svg_16" stroke="#1e1e1e"/>
  <g id="svg_9"/>
  <path d="m56.36,15.89c0,0 0.16,1.02 0.16,1.02c-0.33,0.06 -0.61,0.09 -0.86,0.09c-0.42,0 -0.75,-0.06 -0.97,-0.19c-0.23,-0.13 -0.39,-0.31 -0.49,-0.53c-0.09,-0.22 -0.14,-0.67 -0.14,-1.36c0,0 0,-3.92 0,-3.92c0,0 -0.83,0 -0.83,0c0,0 0,-1 0,-1c0,0 0.83,0 0.83,0c0,0 0,-1.67 0,-1.67c0,0 1.14,-0.69 1.14,-0.69c0,0 0,2.36 0,2.36c0,0 1.16,0 1.16,0c0,0 0,1 0,1c0,0 -1.16,0 -1.16,0c0,0 0,4.05 0,4.05c0,0.33 0.02,0.54 0.07,0.64c0.03,0.09 0.1,0.17 0.18,0.23c0.1,0.06 0.23,0.08 0.41,0.08c0.12,0 0.29,-0.04 0.5,-0.11zm1.08,-2.39c0,-1.24 0.35,-2.16 1.04,-2.75c0.57,-0.5 1.28,-0.75 2.11,-0.75c0.93,0 1.68,0.3 2.27,0.91c0.59,0.6 0.89,1.43 0.89,2.5c0,0.86 -0.13,1.54 -0.39,2.04c-0.26,0.5 -0.64,0.87 -1.14,1.14c-0.49,0.28 -1.03,0.41 -1.63,0.41c-0.93,0 -1.7,-0.3 -2.28,-0.89c-0.58,-0.6 -0.87,-1.47 -0.87,-2.61zm1.17,0c0,0.84 0.19,1.46 0.56,1.88c0.38,0.41 0.85,0.62 1.42,0.62c0.57,0 1.05,-0.21 1.43,-0.62c0.37,-0.42 0.56,-1.06 0.56,-1.93c0,-0.8 -0.2,-1.41 -0.58,-1.83c-0.38,-0.41 -0.84,-0.62 -1.41,-0.62c-0.57,0 -1.04,0.21 -1.42,0.62c-0.37,0.42 -0.56,1.05 -0.56,1.88zm6.25,6.5c0,0 0,-10 0,-10c0,0 1.03,0 1.03,0c0,0 0,1.12 0,1.12c0.25,-0.37 0.52,-0.65 0.83,-0.84c0.31,-0.19 0.69,-0.28 1.12,-0.28c0.57,0 1.08,0.15 1.52,0.44c0.44,0.29 0.78,0.71 1,1.25c0.23,0.53 0.34,1.12 0.34,1.76c0,0.69 -0.12,1.31 -0.37,1.86c-0.24,0.55 -0.6,0.96 -1.08,1.25c-0.47,0.3 -0.96,0.44 -1.48,0.44c-0.38,0 -0.72,-0.08 -1.02,-0.25c-0.3,-0.18 -0.55,-0.39 -0.75,-0.66c0,0 0,3.91 0,3.91c0,0 -1.14,0 -1.14,0zm1.03,-6.44c0,0.84 0.18,1.45 0.53,1.85c0.35,0.39 0.78,0.59 1.28,0.59c0.5,0 0.93,-0.2 1.3,-0.61c0.36,-0.41 0.55,-1.05 0.55,-1.92c0,-0.82 -0.18,-1.44 -0.53,-1.85c-0.36,-0.41 -0.78,-0.62 -1.27,-0.62c-0.49,0 -0.92,0.22 -1.3,0.66c-0.37,0.43 -0.56,1.07 -0.56,1.9zm5.97,-4.56c0,0 0,-2 0,-2c0,0 1.14,0 1.14,0c0,0 0,2 0,2c0,0 -1.14,0 -1.14,0zm0,8c0,0 0,-7 0,-7c0,0 1.14,0 1.14,0c0,0 0,7 0,7c0,0 -1.14,0 -1.14,0zm7.39,-2c0,0 1.13,0 1.13,0c-0.13,0.62 -0.45,1.12 -0.96,1.47c-0.5,0.35 -1.12,0.53 -1.84,0.53c-0.93,0 -1.67,-0.3 -2.24,-0.89c-0.55,-0.6 -0.82,-1.46 -0.82,-2.58c0,-0.73 0.11,-1.36 0.36,-1.91c0.23,-0.53 0.6,-0.94 1.09,-1.21c0.5,-0.27 1.03,-0.41 1.61,-0.41c0.72,0 1.32,0.18 1.78,0.53c0.47,0.35 0.77,0.84 0.91,1.47c0,0 -1.11,0 -1.11,0c-0.11,-0.33 -0.3,-0.58 -0.57,-0.75c-0.27,-0.16 -0.59,-0.25 -0.97,-0.25c-0.57,0 -1.04,0.2 -1.4,0.61c-0.36,0.4 -0.53,1.03 -0.53,1.89c0,0.88 0.17,1.51 0.51,1.91c0.35,0.39 0.8,0.59 1.36,0.59c0.45,0 0.82,-0.08 1.11,-0.23c0.3,-0.17 0.49,-0.43 0.58,-0.77z" fill="#f58517" id="topic" stroke="#f58517" stroke-width="0.2"/>
  <path d="m29.86,17c0,0 0,-7 0,-7c0,0 1.03,0 1.03,0c0,0 0,0.95 0,0.95c0.49,-0.63 1.2,-0.95 2.14,-0.95c0.41,0 0.77,0.07 1.11,0.22c0.34,0.15 0.6,0.34 0.77,0.59c0.16,0.24 0.28,0.53 0.36,0.85c0.03,0.22 0.06,0.6 0.06,1.14c0,0 0,4.2 0,4.2c0,0 -1.14,0 -1.14,0c0,0 0,-4.17 0,-4.17c0,-0.47 -0.05,-0.82 -0.14,-1.05c-0.09,-0.24 -0.25,-0.42 -0.47,-0.56c-0.22,-0.15 -0.49,-0.22 -0.8,-0.22c-0.48,0 -0.9,0.16 -1.25,0.47c-0.35,0.31 -0.53,0.91 -0.53,1.78c0,0 0,3.75 0,3.75c0,0 -1.14,0 -1.14,0zm11.61,-2c0,0 1.19,0 1.19,0c-0.19,0.64 -0.54,1.13 -1.05,1.48c-0.5,0.35 -1.14,0.52 -1.92,0.52c-0.99,0 -1.78,-0.3 -2.36,-0.91c-0.58,-0.6 -0.86,-1.44 -0.86,-2.53c0,-1.13 0.29,-2.01 0.87,-2.62c0.59,-0.63 1.35,-0.94 2.28,-0.94c0.9,0 1.63,0.32 2.21,0.97c0.57,0.65 0.86,1.55 0.86,2.72c0,0.06 0,0.17 0,0.31c0,0 -5.03,0 -5.03,0c0.04,0.65 0.25,1.14 0.62,1.48c0.38,0.35 0.84,0.52 1.41,0.52c0.42,0 0.78,-0.08 1.08,-0.23c0.28,-0.17 0.52,-0.43 0.7,-0.77zm-3.75,-2c0,0 3.76,0 3.76,0c-0.05,-0.58 -0.19,-1.02 -0.43,-1.31c-0.37,-0.46 -0.84,-0.69 -1.41,-0.69c-0.53,0 -0.98,0.18 -1.33,0.55c-0.35,0.36 -0.55,0.85 -0.59,1.45zm7.37,4c0,0 -2.06,-7 -2.06,-7c0,0 1.19,0 1.19,0c0,0 1.08,4.14 1.08,4.14c0,0 0.39,1.41 0.39,1.41c0.02,-0.07 0.14,-0.52 0.36,-1.35c0,0 1.06,-4.2 1.06,-4.2c0,0 1.17,0 1.17,0c0,0 1.02,4.17 1.02,4.17c0,0 0.34,1.22 0.34,1.22c0,0 0.38,-1.23 0.38,-1.23c0,0 1.15,-4.16 1.15,-4.16c0,0 1.11,0 1.11,0c0,0 -2.11,7 -2.11,7c0,0 -1.17,0 -1.17,0c0,0 -1.08,-4.05 -1.08,-4.05c0,0 -0.26,-1.34 -0.26,-1.34c0,0 -1.36,5.39 -1.36,5.39c0,0 -1.21,0 -1.21,0z" fill="#005d8c" id="new" stroke="#005d8c" stroke-width="0.2"/>
  <path d="m12.4,10.3l4.8,1.4" fill="url(#svg_5)" id="svg_8" stroke="#1e1e1e" stroke-linecap="round"/>
  <path d="m11.5,12.3l5.1,1.6" fill="url(#svg_5)" id="svg_11" stroke="#1e1e1e" stroke-linecap="round"/>
  <path d="m10.4,14.2l6,1.9" fill="url(#svg_5)" id="svg_12" stroke="#1e1e1e" stroke-linecap="round"/>
  <path d="m17.7,7.029l2.3,2.771l-2.4,-0.5l0.1,-2.271z" fill="#1e1e1e" id="svg_4" stroke="#1e1e1e" stroke-linecap="round" stroke-linejoin="round"/>
 </g>
</svg>