<svg width="97" height="27" xmlns="http://www.w3.org/2000/svg" xmlns:svg="http://www.w3.org/2000/svg">
 <!-- Created with SVG-edit - https://github.com/SVG-Edit/svgedit-->
 <defs>
  <linearGradient id="svg_5" spreadMethod="pad" x1="0.5" x2="0.5" y1="0.12031" y2="0.86">
   <stop offset="0" stop-color="#f9f9f9" stop-opacity="0.96875"/>
   <stop offset="1" stop-color="#e0e0e0" stop-opacity="0.96875"/>
  </linearGradient>
  <linearGradient id="svg_1" x1="0.5" x2="0.5" y1="0" y2="1">
   <stop offset="0" stop-color="#fdfdfd" stop-opacity="0.98438"/>
   <stop offset="0.99878" stop-color="#cdcfd1" stop-opacity="0.98438"/>
  </linearGradient>
 </defs>
 <g class="layer">
  <title>Layer 1</title>
  <path d="m9,1l79,0a8,8 0 0 1 8,8l0,9a8,8 0 0 1 -8,8l-79,0a8,8 0 0 1 -8,-8l0,-9a8,8 0 0 1 8,-8" fill="url(#svg_1)" id="svg_10" stroke="#005d8c" stroke-width="2"/>
  <path d="m18.2,19.871l-11.2,-2.5l5.2,-11.371l5.6,0.8l2.3,2.771l-1.9,10.3z" fill="url(#svg_5)" id="svg_16" stroke="#1e1e1e"/>
  <g id="svg_9"/>
  <path d="m56.48,16.84c-0.21,0.05 -0.43,0.08 -0.68,0.11c-0.25,0.03 -0.46,0.05 -0.64,0.05c-0.67,0 -1.18,-0.19 -1.54,-0.56c-0.34,-0.38 -0.51,-0.98 -0.51,-1.8c0,0 0,-3.64 0,-3.64c0,0 -0.75,0 -0.75,0c0,0 0,-1 0,-1c0,0 0.75,0 0.75,0c0,0 0,-2 0,-2c0,0 1.09,0 1.09,0c0,0 0,2 0,2c0,0 2.28,0 2.28,0c0,0 0,1 0,1c0,0 -2.28,0 -2.28,0c0,0 0,3.12 0,3.12c0,0.36 0.01,0.64 0.02,0.85c0.02,0.2 0.08,0.39 0.17,0.56c0.08,0.16 0.2,0.28 0.34,0.36c0.16,0.07 0.39,0.11 0.71,0.11c0.17,0 0.36,0 0.56,0c0.2,0 0.34,0 0.42,0c0,0 0.06,0 0.06,0c0,0 0,0.84 0,0.84zm7.18,-3.34c0,1.09 -0.28,1.94 -0.83,2.56c-0.54,0.63 -1.28,0.94 -2.19,0.94c-0.93,0 -1.66,-0.31 -2.2,-0.94c-0.55,-0.62 -0.82,-1.47 -0.82,-2.56c0,-1.08 0.27,-1.94 0.82,-2.56c0.54,-0.63 1.27,-0.94 2.2,-0.94c0.91,0 1.65,0.31 2.19,0.94c0.55,0.62 0.83,1.48 0.83,2.56zm-1.13,0c0,-0.84 -0.17,-1.47 -0.5,-1.88c-0.33,-0.41 -0.79,-0.62 -1.37,-0.62c-0.61,0 -1.08,0.21 -1.41,0.62c-0.32,0.41 -0.48,1.04 -0.48,1.88c0,0.82 0.16,1.45 0.5,1.88c0.33,0.41 0.79,0.62 1.39,0.62c0.58,0 1.04,-0.21 1.37,-0.62c0.33,-0.42 0.5,-1.04 0.5,-1.88zm8.31,-0.05c0,0.55 -0.07,1.04 -0.23,1.49c-0.15,0.45 -0.36,0.83 -0.64,1.14c-0.26,0.29 -0.57,0.52 -0.92,0.69c-0.35,0.15 -0.71,0.23 -1.1,0.23c-0.34,0 -0.65,-0.04 -0.93,-0.11c-0.28,-0.08 -0.55,-0.2 -0.83,-0.36c0,0 0,2.47 0,2.47c0,0 -1.11,0 -1.11,0c0,0 0,-9 0,-9c0,0 1.11,0 1.11,0c0,0 0,0.89 0,0.89c0.29,-0.25 0.61,-0.46 0.98,-0.62c0.37,-0.18 0.76,-0.27 1.17,-0.27c0.79,0 1.41,0.31 1.85,0.92c0.43,0.61 0.65,1.45 0.65,2.53zm-1.14,-0.01c0,-0.82 -0.13,-1.42 -0.4,-1.83c-0.28,-0.41 -0.69,-0.61 -1.24,-0.61c-0.32,0 -0.65,0.07 -0.97,0.22c-0.31,0.14 -0.61,0.32 -0.9,0.55c0,0 0,3.85 0,3.85c0.31,0.15 0.58,0.25 0.79,0.3c0.23,0.06 0.49,0.08 0.77,0.08c0.61,0 1.09,-0.21 1.44,-0.64c0.34,-0.44 0.51,-1.08 0.51,-1.92zm3.57,-4.44c0,0 -1.24,0 -1.24,0c0,0 0,-2 0,-2c0,0 1.24,0 1.24,0c0,0 0,2 0,2zm-0.07,8c0,0 -1.11,0 -1.11,0c0,0 0,-7 0,-7c0,0 1.11,0 1.11,0c0,0 0,7 0,7zm6.72,-0.62c-0.37,0.19 -0.71,0.35 -1.04,0.46c-0.34,0.11 -0.69,0.16 -1.05,0.16c-0.48,0 -0.92,-0.07 -1.31,-0.2c-0.4,-0.15 -0.74,-0.37 -1.02,-0.66c-0.28,-0.28 -0.5,-0.64 -0.66,-1.08c-0.15,-0.44 -0.23,-0.96 -0.23,-1.54c0,-1.1 0.29,-1.96 0.87,-2.58c0.6,-0.63 1.38,-0.94 2.35,-0.94c0.37,0 0.74,0.06 1.09,0.19c0.37,0.11 0.7,0.26 1,0.42c0,0 0,1.39 0,1.39c0,0 -0.06,0 -0.06,0c-0.34,-0.32 -0.68,-0.57 -1.03,-0.73c-0.36,-0.18 -0.71,-0.27 -1.05,-0.27c-0.62,0 -1.12,0.21 -1.48,0.64c-0.36,0.43 -0.53,1.06 -0.53,1.88c0,0.8 0.17,1.41 0.53,1.84c0.35,0.43 0.84,0.64 1.48,0.64c0.22,0 0.44,-0.04 0.67,-0.11c0.24,-0.07 0.45,-0.16 0.63,-0.28c0.15,-0.1 0.3,-0.21 0.44,-0.31c0.14,-0.12 0.25,-0.21 0.34,-0.3c0,0 0.06,0 0.06,0c0,0 0,1.38 0,1.38z" fill="#f58517" id="topic" stroke="#f58517" stroke-width="0.2"/>
  <path d="m35.56,17c0,0 -1.11,0 -1.11,0c0,0 0,-3.94 0,-3.94c0,-0.32 -0.02,-0.61 -0.06,-0.89c-0.03,-0.28 -0.09,-0.5 -0.19,-0.65c-0.09,-0.18 -0.23,-0.31 -0.42,-0.4c-0.18,-0.08 -0.41,-0.12 -0.7,-0.12c-0.31,0 -0.62,0.08 -0.96,0.23c-0.32,0.16 -0.63,0.36 -0.93,0.6c0,0 0,5.17 0,5.17c0,0 -1.11,0 -1.11,0c0,0 0,-7 0,-7c0,0 1.11,0 1.11,0c0,0 0,0.94 0,0.94c0.34,-0.29 0.69,-0.52 1.06,-0.69c0.37,-0.16 0.75,-0.25 1.14,-0.25c0.71,0 1.24,0.23 1.61,0.67c0.38,0.44 0.56,1.08 0.56,1.91c0,0 0,4.42 0,4.42zm7,-3c0,0 -4.83,0 -4.83,0c0,0.34 0.06,0.65 0.18,0.91c0.12,0.25 0.29,0.45 0.51,0.61c0.2,0.16 0.44,0.29 0.72,0.37c0.28,0.07 0.59,0.11 0.92,0.11c0.45,0 0.9,-0.11 1.35,-0.33c0.45,-0.22 0.78,-0.45 0.97,-0.67c0,0 0.06,0 0.06,0c0,0 0,1.38 0,1.38c-0.38,0.17 -0.76,0.32 -1.14,0.45c-0.39,0.12 -0.8,0.17 -1.22,0.17c-1.09,0 -1.94,-0.3 -2.55,-0.89c-0.6,-0.6 -0.91,-1.46 -0.91,-2.56c0,-1.09 0.29,-1.94 0.88,-2.58c0.58,-0.65 1.35,-0.97 2.3,-0.97c0.88,0 1.56,0.29 2.04,0.88c0.48,0.57 0.72,1.39 0.72,2.45c0,0 0,0.67 0,0.67zm-1.08,-1c0,-0.63 -0.14,-1.12 -0.43,-1.47c-0.28,-0.35 -0.72,-0.53 -1.32,-0.53c-0.58,0 -1.05,0.2 -1.4,0.58c-0.35,0.37 -0.54,0.85 -0.6,1.42c0,0 3.75,0 3.75,0zm9.83,-3c0,0 -1.7,7 -1.7,7c0,0 -1.02,0 -1.02,0c0,0 -1.68,-5.39 -1.68,-5.39c0,0 -1.68,5.39 -1.68,5.39c0,0 -1.01,0 -1.01,0c0,0 -1.72,-7 -1.72,-7c0,0 1.16,0 1.16,0c0,0 1.18,5.42 1.18,5.42c0,0 1.64,-5.42 1.64,-5.42c0,0 0.91,0 0.91,0c0,0 1.67,5.42 1.67,5.42c0,0 1.14,-5.42 1.14,-5.42c0,0 1.11,0 1.11,0z" fill="#005d8c" id="new" stroke="#005d8c" stroke-width="0.2"/>
  <path d="m12.4,10.3l4.8,1.4" fill="url(#svg_5)" id="svg_8" stroke="#1e1e1e" stroke-linecap="round"/>
  <path d="m11.5,12.3l5.1,1.6" fill="url(#svg_5)" id="svg_11" stroke="#1e1e1e" stroke-linecap="round"/>
  <path d="m10.4,14.2l6,1.9" fill="url(#svg_5)" id="svg_12" stroke="#1e1e1e" stroke-linecap="round"/>
  <path d="m17.7,7.029l2.3,2.771l-2.4,-0.5l0.1,-2.271z" fill="#1e1e1e" id="svg_4" stroke="#1e1e1e" stroke-linecap="round" stroke-linejoin="round"/>
 </g>
</svg>