<svg width="19" height="18" xmlns="http://www.w3.org/2000/svg" xmlns:svg="http://www.w3.org/2000/svg" xmlns:xlink="http://www.w3.org/1999/xlink">
 <!-- Created with SVG-edit - https://github.com/SVG-Edit/svgedit-->
 <defs>
  <linearGradient id="svg_2" spreadMethod="pad" x1="0.40503" x2="0.65503" y1="0.20703" y2="0.8125">
   <stop offset="0.01831" stop-color="#f9d8bb" stop-opacity="0.96094"/>
   <stop offset="0.96753" stop-color="#f2a460" stop-opacity="0.96484"/>
  </linearGradient>
 </defs>
 <g class="layer">
  <title>Layer 1</title>
  <path d="m12,2c1,1 3.7,5 5,8q2,5 -3,6q-4.5,1 -9,0q-5,-1 -3,-6c1.3,-3 4,-7 5,-8q2.5,-2.5 5,0z" fill="url(#svg_2)" id="svg_3" stroke="#005d8c"/>
  <path d="m9.16,5c0.31,0 0.57,0.1 0.79,0.3c0.22,0.2 0.33,0.43 0.33,0.7c0,0.28 -0.11,0.52 -0.33,0.72c-0.22,0.19 -0.48,0.28 -0.79,0.28c-0.32,0 -0.58,-0.09 -0.8,-0.28c-0.22,-0.2 -0.33,-0.44 -0.33,-0.72c0,-0.27 0.11,-0.5 0.33,-0.7c0.22,-0.2 0.48,-0.3 0.8,-0.3zm1.01,3l0,5l0.83,0l0,1l-3.69,0l0,-1l0.81,0l0,-4l-0.17,0l-0.64,0l0,-1l2.86,0z" fill="black" id="Path" stroke="black" stroke-width="0"/>
  <path d="m12,18l0,-6a3.5,2.5 0 0 1 7,0l0,6l-7,0zm1.5,-4.5l0,-1a2,1.5 0 0 1 4,0l0,1l-4,0z" fill="#70706f" fill-rule="evenodd" id="svg_11" stroke="#000000" stroke-width="0"/>
 </g>
</svg>