<svg width="19" height="18" xmlns="http://www.w3.org/2000/svg" xmlns:svg="http://www.w3.org/2000/svg">
 <!-- Created with SVG-edit - https://github.com/SVG-Edit/svgedit-->
 <defs>
  <linearGradient id="svg_5" spreadMethod="pad" x1="0.5" x2="0.5" y1="0.12031" y2="0.86">
   <stop offset="0" stop-color="#f7f7f7" stop-opacity="0.98828"/>
   <stop offset="0.99878" stop-color="#c4c4c4" stop-opacity="0.98828"/>
  </linearGradient>
 </defs>
 <g class="layer">
  <title>Layer 1</title>
  <path d="m12,2c1,1 3.7,5 5,8q2,5 -3,6q-4.5,1 -9,0q-5,-1 -3,-6c1.3,-3 4,-7 5,-8q2.5,-2.5 5,0z" fill="url(#svg_5)" id="svg_3" stroke="#005d8c"/>
  <path d="m9.16,5c0.31,0 0.57,0.1 0.79,0.3c0.22,0.2 0.33,0.43 0.33,0.7c0,0.28 -0.11,0.52 -0.33,0.72c-0.22,0.19 -0.48,0.28 -0.79,0.28c-0.32,0 -0.58,-0.09 -0.8,-0.28c-0.22,-0.2 -0.33,-0.44 -0.33,-0.72c0,-0.27 0.11,-0.5 0.33,-0.7c0.22,-0.2 0.48,-0.3 0.8,-0.3zm1.01,3l0,5l0.83,0l0,1l-3.69,0l0,-1l0.81,0l0,-4l-0.17,0l-0.64,0l0,-1l2.86,0z" fill="black" id="Path" stroke="black" stroke-width="0"/>
  <circle cx="3.5" cy="3.5" fill="#000000" id="svg_4" r="3" stroke="#000000" stroke-width="0"/>
 </g>
</svg>