<svg width="19" height="18" xmlns="http://www.w3.org/2000/svg" xmlns:svg="http://www.w3.org/2000/svg" xmlns:xlink="http://www.w3.org/1999/xlink">
 <!-- Created with SVG-edit - https://github.com/SVG-Edit/svgedit-->
 <defs>
  <linearGradient id="svg_5" spreadMethod="pad" x1="0.40503" x2="0.65503" y1="0.20703" y2="0.8125">
   <stop offset="0.01831" stop-color="#f9d8bb" stop-opacity="0.96094"/>
   <stop offset="0.96753" stop-color="#f2a460" stop-opacity="0.96484"/>
  </linearGradient>
 </defs>
 <g class="layer">
  <title>Layer 1</title>
  <path d="m5.62,8.06c-0.17,-1.91 -2.22,-2.62 -2.28,-4.53c-0.06,-1.91 0.37,-2.13 1.37,-2.29c1,-0.15 1.63,1.38 3.57,1.38c1.94,0 2.94,-2.05 4.84,-2.11c1.91,-0.07 2.49,0.67 2.7,1.57c0.22,0.91 -2.63,2.7 -1.7,3.54c0.94,0.85 2.1,-0.34 3.35,0.69c1.25,1.03 1.03,1.6 0.94,2.22c-0.1,0.63 -1.31,1.66 -1.87,1.85c-0.56,0.18 -2.61,-0.37 -2.73,0.73c-0.12,1.1 2.64,1.4 2.56,3.43c-0.08,2.03 -1.75,2.93 -2.84,2.84c-1.09,-0.1 -3.55,-2.59 -4.84,-2.71c-1.28,-0.13 -2.79,1.62 -4.29,1.56c-1.5,-0.06 -2.58,-0.96 -2.68,-2.85c-0.1,-1.89 4.14,-3.14 3.9,-5.32z" fill="url(#svg_5)" id="svg_3" stroke="#005d8c"/>
  <path d="m9.536,10.16c0,0 -0.348,0 -0.348,0c-0.036,-0.4928 -0.168,-1.0912 -0.372,-1.804c0,0 -0.432,-1.4168 -0.432,-1.4168c-0.264,-0.8448 -0.384,-1.4608 -0.384,-1.8216c0,-0.3344 0.12,-0.5984 0.384,-0.8008c0.24,-0.2112 0.564,-0.3168 0.972,-0.3168c0.396,0 0.72,0.1056 0.972,0.3168c0.264,0.2024 0.396,0.4664 0.396,0.7832c0,0.3256 -0.144,0.9416 -0.42,1.8392c0,0 -0.42,1.4168 -0.42,1.4168c-0.156,0.5104 -0.264,1.1088 -0.348,1.804zm-0.168,0.88c0.36,0 0.684,0.088 0.936,0.264c0.264,0.1584 0.396,0.3696 0.396,0.616c0,0.2464 -0.132,0.4576 -0.396,0.6336c-0.252,0.1672 -0.576,0.2464 -0.936,0.2464c-0.36,0 -0.672,-0.0792 -0.936,-0.2464c-0.264,-0.176 -0.396,-0.3872 -0.396,-0.6336c0,-0.2376 0.132,-0.44 0.384,-0.616c0.264,-0.176 0.576,-0.264 0.948,-0.264z" fill="#005d8c" id="svg_2" stroke="#000000" stroke-width="0"/>
 </g>
</svg>